#!OML:ASF X:\für Bonn\!DataBase\2005_08_11_Bastian_Final\c3d\Bastian.ASF
:FULLY-SPECIFIED
:DEGREES
263
root 22.5218 16.403 -1.98625 353.107 -64.787 39.5163
lowerback 73.2242 -8.96013 13.4825
upperback 13.9959 -2.78458 -3.93441
thorax -4.90057 -0.731066 -8.60758
lowerneck -4.95443 -9.13105 0.290347
upperneck -25.8398 -10.476 14.6435
head -6.22069 -6.9194 5.108
rclavicle 3.18055e-015 -5.56597e-014
rhumerus 72.7364 -12.2527 -79.5102
rradius 13.2192
rwrist 26.1517
rhand -41.7487 -3.16778
rfingers 7.12502
rthumb -14.653 -32.63
lclavicle 3.18055e-015 -5.56597e-014
lhumerus -10.828 -27.6544 82.6409
lradius 49.1014
lwrist 32.5867
lhand -13.167 -16.3434
lfingers 7.12502
lthumb 12.9322 13.2359
rfemur -67.6489 -13.8881 10.1308
rtibia 66.1658
rfoot -18.9225 -8.13139
rtoes -0.245203
lfemur -59.927 -9.03218 -37.2125
ltibia 41.8851
lfoot -1.07437 -11.4622
ltoes -11.3596
264
root 22.5251 16.3914 -1.98388 352.98 -64.6948 39.6807
lowerback 73.256 -8.98889 13.5008
upperback 13.9674 -2.79612 -4.00796
thorax -4.93787 -0.724953 -8.6959
lowerneck -4.79816 -9.15622 0.420736
upperneck -25.9437 -10.4713 14.7257
head -6.28516 -6.94335 5.13101
rclavicle -2.54444e-014 -6.36111e-014
rhumerus 72.9841 -12.1461 -79.9902
rradius 13.2636
rwrist 26.5203
rhand -41.3606 -3.68014
rfingers 7.12502
rthumb -14.2791 -33.1692
lclavicle -2.54444e-014 -6.36111e-014
lhumerus -10.9184 -27.6069 82.5457
lradius 49.1918
lwrist 32.7391
lhand -13.0924 -16.2676
lfingers 7.12502
lthumb 13.0042 13.3071
rfemur -67.7649 -13.9877 10.0258
rtibia 66.3495
rfoot -18.9824 -8.14277
rtoes -0.362714
lfemur -60.0039 -9.01699 -37.415
ltibia 42.0256
lfoot -1.09908 -11.5979
ltoes -11.2881
265
root 22.5279 16.3816 -1.98121 352.853 -64.6007 39.8108
lowerback 73.2858 -9.02034 13.5423
upperback 13.9809 -2.80116 -4.0733
thorax -4.92242 -0.711411 -8.78691
lowerneck -4.62717 -9.18347 0.528905
upperneck -26.1621 -10.4506 14.8622
head -6.3857 -6.97102 5.1842
rclavicle -6.04305e-014 -3.65764e-014
rhumerus 73.2265 -12.0268 -80.1854
rradius 13.3129
rwrist 26.651
rhand -40.9797 -4.35032
rfingers 7.12502
rthumb -13.9121 -33.8649
lclavicle -6.04305e-014 -3.65764e-014
lhumerus -10.9019 -27.5706 82.4242
lradius 49.2097
lwrist 32.7798
lhand -13.0438 -16.2665
lfingers 7.12502
lthumb 13.0509 13.3052
rfemur -67.8342 -14.1006 9.93107
rtibia 66.5324
rfoot -19.0695 -8.11424
rtoes -0.360378
lfemur -60.045 -9.03846 -37.5727
ltibia 42.1689
lfoot -1.15265 -11.6655
ltoes -11.2947
266
root 22.5313 16.3704 -1.97954 352.73 -64.4894 39.9732
lowerback 73.2888 -9.04309 13.5788
upperback 13.9852 -2.80036 -4.13311
thorax -4.9197 -0.697021 -8.87243
lowerneck -4.4187 -9.21017 0.631567
upperneck -26.3604 -10.4217 15.0161
head -6.48529 -6.99449 5.24479
rclavicle -6.36111e-015 6.20208e-014
rhumerus 73.4786 -11.9772 -80.5637
rradius 13.3507
rwrist 26.9706
rhand -40.6223 -4.7898
rfingers 7.12502
rthumb -13.5676 -34.3277
lclavicle -6.36111e-015 6.20208e-014
lhumerus -10.9158 -27.5889 82.3215
lradius 49.2561
lwrist 32.889
lhand -13.0461 -16.1814
lfingers 7.12502
lthumb 13.0488 13.3904
rfemur -67.9446 -14.2037 9.81558
rtibia 66.7147
rfoot -19.1129 -8.14046
rtoes -0.506173
lfemur -60.1211 -9.0299 -37.7837
ltibia 42.3147
lfoot -1.1772 -11.814
ltoes -11.2144
267
root 22.5343 16.3586 -1.97824 352.673 -64.3917 40.0544
lowerback 73.3023 -9.04811 13.6294
upperback 14.0049 -2.77121 -4.17302
thorax -4.89056 -0.670409 -8.95205
lowerneck -4.25541 -9.23967 0.727406
upperneck -26.5502 -10.3961 15.1825
head -6.57323 -7.01964 5.30758
rclavicle -1.90833e-014 4.13472e-014
rhumerus 73.7338 -11.9453 -80.7768
rradius 13.387
rwrist 27.2211
rhand -40.2289 -5.36832
rfingers 7.12502
rthumb -13.1884 -34.9312
lclavicle -1.90833e-014 4.13472e-014
lhumerus -10.8976 -27.5934 82.2486
lradius 49.2966
lwrist 32.8831
lhand -13.0893 -16.162
lfingers 7.12502
lthumb 13.0071 13.4125
rfemur -68.0474 -14.3016 9.74104
rtibia 66.8958
rfoot -19.1911 -8.11113
rtoes -0.447442
lfemur -60.1989 -9.04186 -37.9335
ltibia 42.4646
lfoot -1.2302 -11.9223
ltoes -11.3699
268
root 22.5369 16.3471 -1.97545 352.582 -64.3041 40.1836
lowerback 73.3217 -9.05693 13.68
upperback 14.0052 -2.74407 -4.22664
thorax -4.88519 -0.644962 -9.04672
lowerneck -4.05482 -9.27767 0.828972
upperneck -26.75 -10.3787 15.345
head -6.67132 -7.05038 5.37187
rclavicle 0 0
rhumerus 73.917 -11.9172 -80.9023
rradius 13.4345
rwrist 27.362
rhand -39.8457 -5.88873
rfingers 7.12502
rthumb -12.819 -35.4751
lclavicle 0 0
lhumerus -10.9346 -27.6702 82.162
lradius 49.3629
lwrist 32.9326
lhand -13.1234 -16.1207
lfingers 7.12502
lthumb 12.9742 13.4559
rfemur -68.1598 -14.3957 9.64983
rtibia 67.0732
rfoot -19.2347 -8.12629
rtoes -0.599456
lfemur -60.2767 -9.0298 -38.1161
ltibia 42.6111
lfoot -1.24507 -12.034
ltoes -11.0795
269
root 22.5406 16.3354 -1.97404 352.519 -64.2031 40.2892
lowerback 73.3202 -9.04418 13.7203
upperback 14.0328 -2.70441 -4.25291
thorax -4.84661 -0.614753 -9.11132
lowerneck -3.94158 -9.2996 0.9883
upperneck -26.9041 -10.3576 15.4449
head -6.74893 -7.07557 5.39892
rclavicle -6.04305e-014 5.88403e-014
rhumerus 74.1969 -11.943 -81.1812
rradius 13.4348
rwrist 27.7167
rhand -39.5003 -6.23286
rfingers 7.12502
rthumb -12.486 -35.8398
lclavicle -6.04305e-014 5.88403e-014
lhumerus -10.9153 -27.6859 82.1018
lradius 49.4083
lwrist 32.899
lhand -13.2099 -16.0655
lfingers 7.12502
lthumb 12.8909 13.5163
rfemur -68.2765 -14.502 9.56899
rtibia 67.2536
rfoot -19.3088 -8.12016
rtoes -0.579652
lfemur -60.3736 -9.05587 -38.2641
ltibia 42.7624
lfoot -1.27573 -12.1339
ltoes -11.0244
270
root 22.5434 16.325 -1.97176 352.495 -64.1069 40.3555
lowerback 73.336 -9.03379 13.7639
upperback 14.046 -2.65997 -4.27535
thorax -4.82152 -0.584272 -9.17405
lowerneck -3.77734 -9.30931 1.13143
upperneck -27.1063 -10.3101 15.5534
head -6.8518 -7.09122 5.43808
rclavicle 9.22361e-014 -2.38542e-014
rhumerus 74.4681 -12.0155 -81.5795
rradius 13.4473
rwrist 28.2528
rhand -39.1763 -6.46578
rfingers 7.12502
rthumb -12.1736 -36.0916
lclavicle 9.22361e-014 -2.38542e-014
lhumerus -10.9061 -27.7197 82.0357
lradius 49.4789
lwrist 32.9226
lhand -13.2166 -15.9661
lfingers 7.12502
lthumb 12.8844 13.6161
rfemur -68.3949 -14.6143 9.51688
rtibia 67.4253
rfoot -19.3524 -8.13062
rtoes -0.73194
lfemur -60.4714 -9.07459 -38.4041
ltibia 42.91
lfoot -1.31628 -12.2243
ltoes -11.1749
271
root 22.546 16.3135 -1.9708 352.47 -63.9997 40.4509
lowerback 73.3243 -9.00959 13.8064
upperback 14.0774 -2.60451 -4.27665
thorax -4.77435 -0.549272 -9.21685
lowerneck -3.67694 -9.34288 1.23174
upperneck -27.2926 -10.2976 15.688
head -6.93097 -7.12153 5.48778
rclavicle 6.36111e-014 -3.49861e-014
rhumerus 74.812 -12.1297 -81.9843
rradius 13.3761
rwrist 28.9082
rhand -38.8886 -6.69909
rfingers 7.12502
rthumb -11.8962 -36.3411
lclavicle 6.36111e-014 -3.49861e-014
lhumerus -10.8587 -27.7233 82.0221
lradius 49.498
lwrist 32.8959
lhand -13.2781 -15.9663
lfingers 7.12502
lthumb 12.8252 13.6197
rfemur -68.5408 -14.706 9.42847
rtibia 67.6058
rfoot -19.4212 -8.14365
rtoes -0.588323
lfemur -60.5949 -9.12971 -38.5298
ltibia 43.0659
lfoot -1.35384 -12.3063
ltoes -11.1104
272
root 22.5488 16.3025 -1.96911 352.507 -63.8998 40.4624
lowerback 73.3236 -8.98508 13.8604
upperback 14.1095 -2.5402 -4.27476
thorax -4.72244 -0.51048 -9.26369
lowerneck -3.5881 -9.36882 1.42868
upperneck -27.453 -10.2906 15.7398
head -7.01284 -7.15442 5.49391
rclavicle 8.26944e-014 -2.06736e-014
rhumerus 75.093 -12.2105 -82.2184
rradius 13.3655
rwrist 29.3696
rhand -38.6564 -7.06531
rfingers 7.12502
rthumb -11.6723 -36.7202
lclavicle 8.26944e-014 -2.06736e-014
lhumerus -10.8158 -27.7178 81.9888
lradius 49.5578
lwrist 32.8362
lhand -13.3002 -15.8876
lfingers 7.12502
lthumb 12.8038 13.6998
rfemur -68.6699 -14.8141 9.40181
rtibia 67.7729
rfoot -19.4594 -8.16658
rtoes -0.737312
lfemur -60.71 -9.16684 -38.629
ltibia 43.2259
lfoot -1.39004 -12.4022
ltoes -11.0594
273
root 22.5509 16.2908 -1.96802 352.546 -63.8137 40.4732
lowerback 73.3399 -8.95565 13.9021
upperback 14.1395 -2.47917 -4.28564
thorax -4.67426 -0.472116 -9.31933
lowerneck -3.46078 -9.37927 1.63672
upperneck -27.6684 -10.2493 15.8079
head -7.12263 -7.17797 5.51042
rclavicle 6.67916e-014 3.33958e-014
rhumerus 75.4469 -12.3193 -82.6749
rradius 13.3097
rwrist 30.0665
rhand -38.4258 -7.53774
rfingers 7.12502
rthumb -11.45 -37.2051
lclavicle 6.67916e-014 3.33958e-014
lhumerus -10.7773 -27.7231 81.9356
lradius 49.6211
lwrist 32.8703
lhand -13.3522 -15.827
lfingers 7.12502
lthumb 12.7537 13.7635
rfemur -68.799 -14.9058 9.37255
rtibia 67.9435
rfoot -19.535 -8.14158
rtoes -0.681077
lfemur -60.8371 -9.1934 -38.7223
ltibia 43.393
lfoot -1.4304 -12.4946
ltoes -11.0475
274
root 22.5537 16.2801 -1.96705 352.69 -63.7074 40.3874
lowerback 73.3413 -8.92908 13.9716
upperback 14.1529 -2.39463 -4.25555
thorax -4.63645 -0.429556 -9.34652
lowerneck -3.31256 -9.39329 1.81044
upperneck -27.8773 -10.2145 15.8675
head -7.23169 -7.20054 5.53045
rclavicle -6.04305e-014 -1.59028e-014
rhumerus 75.7822 -12.4185 -82.9385
rradius 13.1949
rwrist 30.5843
rhand -38.2461 -7.90264
rfingers 7.12502
rthumb -11.2767 -37.5795
lclavicle -6.04305e-014 -1.59028e-014
lhumerus -10.7336 -27.6959 81.9658
lradius 49.597
lwrist 32.7901
lhand -13.3526 -15.8181
lfingers 7.12502
lthumb 12.7533 13.7724
rfemur -68.9332 -15.0166 9.39716
rtibia 68.1023
rfoot -19.5938 -8.17965
rtoes -0.799184
lfemur -60.9767 -9.26275 -38.7562
ltibia 43.558
lfoot -1.46205 -12.5673
ltoes -10.9828
275
root 22.5559 16.2681 -1.9656 352.752 -63.6081 40.3966
lowerback 73.3351 -8.91425 14.0371
upperback 14.1892 -2.33622 -4.27216
thorax -4.58143 -0.389541 -9.41719
lowerneck -3.23046 -9.42088 2.04528
upperneck -28.0604 -10.1995 15.9359
head -7.32387 -7.23773 5.53872
rclavicle -8.90555e-014 -1.59028e-014
rhumerus 76.1264 -12.5674 -83.2392
rradius 13.0906
rwrist 31.1514
rhand -38.1048 -8.27824
rfingers 7.12502
rthumb -11.1403 -37.9625
lclavicle -8.90555e-014 -1.59028e-014
lhumerus -10.6549 -27.7458 81.9003
lradius 49.6153
lwrist 32.7842
lhand -13.4067 -15.8116
lfingers 7.12502
lthumb 12.7012 13.7821
rfemur -69.0825 -15.1252 9.37065
rtibia 68.2622
rfoot -19.6536 -8.17799
rtoes -0.774629
lfemur -61.1208 -9.30527 -38.8524
ltibia 43.7175
lfoot -1.50183 -12.6464
ltoes -11.0373
276
root 22.558 16.2585 -1.96385 352.824 -63.5083 40.3708
lowerback 73.3637 -8.87764 14.081
upperback 14.203 -2.25457 -4.23732
thorax -4.54276 -0.349198 -9.4272
lowerneck -3.10359 -9.44168 2.2265
upperneck -28.2454 -10.1837 15.9621
head -7.42353 -7.26587 5.54442
rclavicle 3.18055e-014 -4.45278e-014
rhumerus 76.3303 -12.6379 -83.0323
rradius 13.0317
rwrist 31.2525
rhand -37.9781 -8.64935
rfingers 7.12502
rthumb -11.0182 -38.3402
lclavicle 3.18055e-014 -4.45278e-014
lhumerus -10.6437 -27.7269 81.9473
lradius 49.6274
lwrist 32.7843
lhand -13.4346 -15.8495
lfingers 7.12502
lthumb 12.6743 13.746
rfemur -69.1891 -15.2242 9.34589
rtibia 68.4095
rfoot -19.7255 -8.18051
rtoes -0.666851
lfemur -61.2245 -9.36149 -38.927
ltibia 43.868
lfoot -1.54545 -12.7186
ltoes -11.1942
